<?xml version="1.0" encoding="utf-8"?>
<!-- Generator: Adobe Illustrator 23.0.1, SVG Export Plug-In . SVG Version: 6.00 Build 0)  -->
<svg version="1.1" id="图层_1" xmlns="http://www.w3.org/2000/svg" xmlns:xlink="http://www.w3.org/1999/xlink" x="0px" y="0px"
	 viewBox="0 0 36 36" style="enable-background:new 0 0 36 36;" xml:space="preserve">
<style type="text/css">
	.st0{fill-rule:evenodd;clip-rule:evenodd;}
</style>
<path class="st0" d="M25.79,12c-0.1,0-0.19,0-0.29,0C19.15,12,14,16.7,14,22.5c0,0.84,0.11,1.66,0.31,2.44
	C13.88,24.98,13.44,25,13,25c-1.38,0-2.71-0.18-3.96-0.52L4,27l1.37-4.1C2.11,20.9,0,17.66,0,14C0,7.92,5.82,3,13,3
	C19.37,3,24.68,6.88,25.79,12z M8,12c1.1,0,2-0.9,2-2S9.1,8,8,8s-2,0.9-2,2S6.9,12,8,12z M18,12c1.1,0,2-0.9,2-2s-0.9-2-2-2
	s-2,0.9-2,2S16.9,12,18,12z M32.2,29.81L33,33l-3.46-1.73C28.3,31.74,26.93,32,25.5,32C19.7,32,15,27.75,15,22.5S19.7,13,25.5,13
	S36,17.25,36,22.5C36,25.44,34.52,28.07,32.2,29.81z M21.5,21c0.83,0,1.5-0.67,1.5-1.5S22.33,18,21.5,18S20,18.67,20,19.5
	S20.67,21,21.5,21z M29.5,21c0.83,0,1.5-0.67,1.5-1.5S30.33,18,29.5,18S28,18.67,28,19.5S28.67,21,29.5,21z"/>
</svg>
